<?xml version="1.0" encoding="UTF-8" standalone="no"?>
<svg width="563px" height="246px" viewBox="0 0 563 246" version="1.1" xmlns="http://www.w3.org/2000/svg" xmlns:xlink="http://www.w3.org/1999/xlink">
    <!-- Generator: Sketch 48.2 (47327) - http://www.bohemiancoding.com/sketch -->
    <title>Slice 1</title>
    <desc>Created with Sketch.</desc>
    <defs></defs>
    <g id="Page-1" stroke="none" stroke-width="1" fill="none" fill-rule="evenodd">
        <path d="M292,195 C358.340886,195 385.164522,173.490726 431,154 C466.427324,138.935157 537.172923,181.972008 562.040134,164.946052 C562.040134,164.946052 516,130.359691 516,114 C516,89.1349501 539.83899,50.6163435 539.83899,50.6163435 C516.793948,54.2491433 531.700304,86 456,86 C380.299696,86 342.627524,50.6163435 292,50.6163435 C279.863629,50.6163435 284.030296,33.744229 304.5,0 C266.844443,16.4955874 244.01111,30.4955874 236,42 C230,50.6163435 153.000871,64.1855941 148,65 C52.7128251,80.5177855 96,77 14.1893427,104.437884 C5.78975253,107.254961 5.63559268e-14,117.189799 5.68434189e-14,124 C5.63559268e-14,131.714497 5.13558066,138.831264 14.1893427,144 C79,181 125.555016,178.688875 214,195 C224.657163,196.965406 254.82383,213.965406 304.5,246 C284.796186,212 280.629519,195 292,195 Z" id="Oval" fill="#709A6D"></path>
    </g>
</svg>